<svg xmlns="http://www.w3.org/2000/svg" width="376" height="130" xmlns:v="https://vecta.io/nano"><path d="M130.841 49.039h-3.548c-.687-.081-1.34.313-1.58.953l-12.89 24.774c-.223.562-.736.962-1.342 1.048-1.432.229-2.841.591-4.297.586-1.183 0-1.432-.395-.955-1.458l3.6-7.623 8.207-17.298c.44-.92.095-1.015-.707-1.005h-5.252c-.592 0-.883-.143-.564-.786a9.14 9.14 0 0 0 .525-1.263c.13-.571.69-.942 1.275-.844l5.381.034c.697.077 1.362-.312 1.628-.953 1.432-2.578 3.017-5.059 5.319-6.936 4.569-3.73 9.764-5.998 15.755-6.255a6.52 6.52 0 0 1 2.908.476c1.347.576 1.652 1.634.807 2.859-.549.892-1.557 1.406-2.612 1.334a15.73 15.73 0 0 1-3.371-.586c-3.289-.886-6.927.391-8.437 3.888-.764 1.778-1.671 3.496-2.549 5.24-.354.7-.324.991.587.953 2.211-.053 4.426-.029 6.637 0 1.237 0 1.204.063.826 1.196-.43 1.31-1.151 1.905-2.587 1.705a19.44 19.44 0 0 0-2.765-.038v-.001zm59.897-5.274c.909.117 1.785.414 2.579.871 1.628.976 2.048 2.439 1.132 4.088a7.38 7.38 0 0 1-3.27 2.93c-3.4 1.749-7.11 2.435-10.824 3.088-3.232.568-6.508.771-9.768 1.063-.495-.023-.919.354-.955.848-.616 2.51 0 3.673 2.574 4.24 3.672.82 7.272.263 10.815-.805a46.33 46.33 0 0 0 6.04-2.383c.854-.391 1.704-.443 2.387.334.424.476.502.868-.167 1.273-5.879 3.555-12.621 5.44-19.495 5.45-1.877-.086-4.393-.09-6.708-1.31-3.343-1.778-4.402-4.635-2.865-8.136 1.068-2.378 2.779-4.41 4.942-5.869 7.11-4.983 14.958-6.96 23.586-5.679l-.001-.001zm-6.645 2.059l-.413.027c-5.242.644-9.225 3.406-12.619 7.513 1.304.033 2.608-.053 3.896-.258a28.37 28.37 0 0 0 8.79-2.325c1.183-.553 2.311-1.244 2.955-2.415s.291-1.986-.978-2.334c-.663-.192-1.357-.254-2.044-.181l.413-.027h0zm38.28-2.059c.486.081.965.201 1.432.357 3.051.996 3.667 3.473 1.432 5.789-1.533 1.578-3.519 2.359-5.558 3.025-5.066 1.673-10.318 2.296-15.608 2.706-.153 0-.305 0-.478.024-1.056.086-2.23-.171-2.449 1.476-.248 1.844.038 2.725 1.69 3.393 2.525 1.02 5.166.844 7.778.476 3.281-.506 6.459-1.535 9.411-3.049.869-.434 1.742-.786 2.703-.239s.921 1.044.076 1.581a37.56 37.56 0 0 1-18.315 5.455 20.43 20.43 0 0 1-5.304-.429 11.86 11.86 0 0 1-1.208-.319c-5.582-1.844-5.563-6.365-3.591-9.8 1.604-2.791 4.067-4.716 6.789-6.294 6.575-3.811 13.632-5.321 21.199-4.154h.001zm-5.152 2.244a7.88 7.88 0 0 0-4.048.234c-4.216 1.129-7.52 3.593-10.475 7.194 4.564-.239 8.714-.848 12.647-2.606 1.142-.449 2.134-1.203 2.865-2.178.921-1.386.611-2.234-.988-2.644h0z" fill="#c52423"/><path d="M168.479 85.626l-5.701 7.346-5.73-7.38v10.881c0 1.601 0 1.61-1.633 1.601-1.021 0-2.387.353-2.984-.162-.697-.6-.215-1.996-.219-3.044l-.033-16.779c0-.848.195-1.115 1.056-1.048a24.88 24.88 0 0 0 3.319 0 1.35 1.35 0 0 1 1.432.844l4.086 7.103.745 1.244 4.847-8.356a1.35 1.35 0 0 1 1.432-.834c1.18.066 2.363.042 3.543 0 .573 0 .792.11.792.744v19.533c0 .591-.176.805-.778.781a29.94 29.94 0 0 0-3.203 0c-.802.052-.931-.271-.926-.981V87.076l-.043-1.449v-.001z" fill="#000"/><path d="M151.558 50.554c.521.195.754-.252 1.056-.5 2.454-1.996 4.899-4.001 7.845-5.269a9.18 9.18 0 0 1 5.114-.834c1.761.271 2.468 1.52 1.728 3.154-.702 1.544-1.853 2.483-3.638 2.463a2.76 2.76 0 0 1-.343 0c-4.951-.853-8.36 1.729-11.426 5.088a43.95 43.95 0 0 0-6.346 9.051c-.568 1.053-1.328 1.601-2.53 1.529-1.323-.086-2.669.2-3.953-.371-.745-.329-1.064-.629-.602-1.515 2.134-4.078 4.397-8.075 6.684-12.073.424-.748 1.161-1.729.683-2.383s-1.623-.186-2.473 0c-1.656.415-3.036 1.381-4.493 2.206-.769.434-2.263-.042-2.636-.82-.114-.243 0-.353.157-.476 4.097-2.954 8.241-5.798 13.565-5.974.266-.005.533.01.797.042 2.617.281 3.343 1.453 2.258 3.849-.44.991-.964 1.901-1.447 2.83l.001.002z" fill="#c52423"/><path d="M210.457 84.95l.029 11.729c.024 1.153-.262 1.468-1.432 1.429-2.793-.095-2.793-.029-2.793-2.768V78.104c0-.868.243-.986 1.064-1.086 2.082-.257 3.39.51 4.612 2.215 2.582 3.616 5.428 7.041 8.179 10.561.367-.319.2-.681.2-.991V78.184c0-.834.129-1.239 1.094-1.144 1.088.105 2.574-.363 3.194.19.716.639.219 2.144.224 3.268l.038 16.326c0 1.096-.362 1.191-1.323 1.296-1.972.219-3.16-.539-4.297-2.125-2.722-3.811-5.668-7.431-8.523-11.134l-.267.086-.001.002zm-20.707-8.041c6.159 0 11.01 4.716 11.039 10.69 0 5.893-4.975 10.648-11.124 10.629s-11.067-4.764-11.086-10.71c0-5.831 5.013-10.61 11.172-10.61l-.001.001zm-.057 4.188c-3.734-.019-6.465 2.706-6.479 6.455s2.688 6.45 6.465 6.45 6.455-2.678 6.47-6.446-2.722-6.441-6.455-6.46l-.001.001zm41.218 6.479v-9.59c0-.744.186-.953.955-.953h14.075c.683 0 .955.129.893.863-.086 1.096.34 2.53-.21 3.196s-2.068.19-3.16.21a231.72 231.72 0 0 1-6.976 0c-.702 0-1.059.11-.978.924a14.81 14.81 0 0 1 0 2.383c-.043.634.205.752.778.748l8.117-.029c.731 0 1.05.157.955.953-.11.953.402 2.23-.21 2.859s-1.815.158-2.76.166c-2.025.029-4.043.034-6.063 0-.649 0-.874.181-.835.834.057.912.057 1.827 0 2.739-.052.719.21.881.902.876l9.725-.037c.797 0 1.088.2.993 1.005-.124 1.081.478 2.491-.238 3.173s-2.039.171-3.098.176l-11.783.029c-.826 0-1.107-.158-1.088-1.048l.01-9.475h-.005zm19.088-10.514h5.118c.621 0 .759.41.978.786l4.297 7.389 4.197-7.146c.316-.73 1.083-1.155 1.872-1.039 1.432.071 2.822 0 4.23 0 .134.386-.157.581-.305.82l-6.957 10.843c-.379.564-.572 1.229-.554 1.905l.029 6.394c0 .658-.11.953-.859.91a30.84 30.84 0 0 0-3.319 0c-.669.034-.821-.205-.812-.829l.029-6.508c.019-.641-.163-1.273-.521-1.805L250.699 78.2c-.205-.3-.392-.619-.702-1.139h.001z" fill="#000"/><path d="M137.53 80.563h-8.799c-1.304 0-1.877-.476-1.958-1.429-.086-1.129.54-1.829 1.771-1.905l3.881-.09 13.713.081c.955 0 1.872.114 2.144 1.258.291 1.22-.373 2.054-1.718 2.063h-9.033v.024l-.001-.001z" fill="#c52423"/><path d="M131.877 85.903h6.741c.916 0 1.777.152 2.048 1.234.152.478.079.999-.199 1.419s-.73.687-1.233.734a9.25 9.25 0 0 1-1.361.024l-12.452.071c-.831 0-1.718 0-2.211-.867-.735-1.32.048-2.568 1.699-2.601l6.967-.014.001.001z" fill="#424142"/><path d="M136.657 97.923h-4.111c-1.199 0-1.695-.534-1.685-1.653s.478-1.581 1.623-1.601l7.983-.066c1.007 0 1.91.186 2.091 1.429.143 1.144-.411 1.849-1.566 1.881l-4.335.01h0z" fill="#c52423"/></svg>