<svg id="Calque_1" data-name="Calque 1" xmlns="http://www.w3.org/2000/svg" viewBox="0 0 50 50"><defs><style>.cls-1{fill:#1d1d1b;}.cls-2{fill:#ee7d00;}.cls-3{fill:#fff;}</style></defs><rect class="cls-1" x="0.04" width="49.91" height="50"/><path class="cls-2" d="M7,33.79a2.07,2.07,0,0,1,1.53.59,2.11,2.11,0,0,1,.58,1.55A2,2,0,0,1,7,38a2,2,0,0,1-1.53-.59,2.05,2.05,0,0,1-.58-1.51,2.11,2.11,0,0,1,.58-1.54A2,2,0,0,1,7,33.79M5.82,35.93a1.46,1.46,0,0,0,.31,1,1,1,0,0,0,.86.37,1.05,1.05,0,0,0,.85-.36,1.49,1.49,0,0,0,.32-1,1.55,1.55,0,0,0-.31-1A1.07,1.07,0,0,0,7,34.54a1,1,0,0,0-.85.37,1.5,1.5,0,0,0-.31,1"/><path class="cls-2" d="M11.35,34.92a.5.5,0,0,1,.19,0v.75a1.42,1.42,0,0,0-.31,0c-.56,0-.84.32-.84.94v1.33H9.54V35h.81v.55h0a1,1,0,0,1,.4-.46,1.12,1.12,0,0,1,.59-.17"/><path class="cls-2" d="M13.1,34.92c.91,0,1.36.28,1.36.84v1.55a1.39,1.39,0,0,0,.11.63H13.7a1.5,1.5,0,0,1-.06-.29,1.46,1.46,0,0,1-1.05.37,1.16,1.16,0,0,1-.77-.24.85.85,0,0,1,0-1.27,1.88,1.88,0,0,1,1-.29,2.42,2.42,0,0,0,.66-.13.26.26,0,0,0,.14-.24.35.35,0,0,0-.13-.29.69.69,0,0,0-.42-.1.67.67,0,0,0-.41.11.44.44,0,0,0-.16.33h-.86a.89.89,0,0,1,.42-.73,2,2,0,0,1,1-.25m-.71,2.18c0,.25.17.38.52.38a.62.62,0,0,0,.7-.67V36.5a1.13,1.13,0,0,1-.52.14,1.58,1.58,0,0,0-.53.14.35.35,0,0,0-.17.32"/><path class="cls-2" d="M16.79,34.92a1.11,1.11,0,0,1,.86.29,1.27,1.27,0,0,1,.27.9v1.83h-.85V36.27a.9.9,0,0,0-.13-.54.49.49,0,0,0-.42-.17.6.6,0,0,0-.51.2,1.09,1.09,0,0,0-.15.65v1.53H15V35h.81v.41h0a1.1,1.1,0,0,1,1-.49"/><path class="cls-2" d="M19.69,34.92a1,1,0,0,1,.93.47h0V35h.81v2.75a1.15,1.15,0,0,1-.42,1,1.84,1.84,0,0,1-1.18.33,1.67,1.67,0,0,1-1-.27.85.85,0,0,1-.4-.67h.85c.06.26.28.4.63.4a.64.64,0,0,0,.51-.19.7.7,0,0,0,.18-.52v-.4h0a.91.91,0,0,1-.37.33,1.41,1.41,0,0,1-1.54-.27,1.51,1.51,0,0,1-.35-1.08,1.47,1.47,0,0,1,.37-1,1.2,1.2,0,0,1,1-.42m-.48,1.44a1,1,0,0,0,.18.65.62.62,0,0,0,.51.23.67.67,0,0,0,.53-.22.88.88,0,0,0,.2-.59,1,1,0,0,0-.19-.67.68.68,0,0,0-.54-.23.6.6,0,0,0-.51.24.92.92,0,0,0-.18.59"/><path class="cls-2" d="M23.45,34.92a1.56,1.56,0,0,1,.78.2,1.3,1.3,0,0,1,.54.55,1.8,1.8,0,0,1,.19.85v.15H22.71a.82.82,0,0,0,.2.54.73.73,0,0,0,.56.2.89.89,0,0,0,.43-.11.53.53,0,0,0,.25-.27h.75a1.38,1.38,0,0,1-1.45,1,2,2,0,0,1-.79-.18,1.24,1.24,0,0,1-.58-.53,1.68,1.68,0,0,1,0-1.66,1.53,1.53,0,0,1,.58-.55,1.79,1.79,0,0,1,.79-.18m.65,1.23a.8.8,0,0,0-.22-.47.65.65,0,0,0-.46-.15.72.72,0,0,0-.5.17.68.68,0,0,0-.21.45Z"/><polygon class="cls-2" points="28.32 33.88 29.32 36.67 29.34 36.67 30.29 33.88 31.62 33.88 31.62 37.94 30.73 37.94 30.73 35.06 30.72 35.06 29.66 37.94 28.94 37.94 27.88 35.09 27.87 35.09 27.87 37.94 26.99 37.94 26.99 33.88 28.32 33.88"/><path class="cls-2" d="M33.75,34.92a1.64,1.64,0,0,1,1.18.43,1.51,1.51,0,0,1,.43,1.12,1.48,1.48,0,0,1-.44,1.12,1.61,1.61,0,0,1-1.17.43,1.63,1.63,0,0,1-1.18-.43,1.67,1.67,0,0,1,0-2.25,1.65,1.65,0,0,1,1.17-.42M33,36.47a1.07,1.07,0,0,0,.19.69.65.65,0,0,0,.56.25.7.7,0,0,0,.57-.25,1.18,1.18,0,0,0,.19-.69,1.12,1.12,0,0,0-.2-.7.69.69,0,0,0-.57-.24.66.66,0,0,0-.55.24,1.12,1.12,0,0,0-.19.7"/><path class="cls-2" d="M37.58,34.92a1.15,1.15,0,0,1,.87.29,1.32,1.32,0,0,1,.26.9v1.83h-.85V36.27a1,1,0,0,0-.12-.54.52.52,0,0,0-.43-.17.57.57,0,0,0-.5.2,1,1,0,0,0-.16.65v1.53h-.86V35h.82v.41h0a1.07,1.07,0,0,1,.95-.49"/><path class="cls-2" d="M40.68,34.92a1.53,1.53,0,0,1,.78.2,1.3,1.3,0,0,1,.54.55,1.81,1.81,0,0,1,.2.85,1,1,0,0,1,0,.15H40a.82.82,0,0,0,.19.54.76.76,0,0,0,.57.2.92.92,0,0,0,.43-.11.58.58,0,0,0,.25-.27h.75a1.39,1.39,0,0,1-1.46,1,2.08,2.08,0,0,1-.79-.18,1.29,1.29,0,0,1-.58-.53,1.55,1.55,0,0,1-.22-.84,1.65,1.65,0,0,1,.22-.82,1.49,1.49,0,0,1,.59-.55,1.72,1.72,0,0,1,.78-.18m.66,1.23a.86.86,0,0,0-.22-.47.68.68,0,0,0-.47-.15.69.69,0,0,0-.49.17.68.68,0,0,0-.21.45Z"/><path class="cls-2" d="M43.13,35l.71,2h0l.68-2h.88l-1.3,3.31a1,1,0,0,1-.38.5,1.2,1.2,0,0,1-.68.16l-.53,0v-.66l.45,0a.38.38,0,0,0,.28-.11.35.35,0,0,0,.1-.26.43.43,0,0,0,0-.19L42.22,35Z"/><path class="cls-3" d="M21.24,12.9H8.89a2.37,2.37,0,1,0,0,4.73h6.3L5.05,27.18a2.26,2.26,0,0,0,0,3.34,2.63,2.63,0,0,0,3.55,0L18.73,21V26.9a2.51,2.51,0,0,0,5,0V15.26a2.44,2.44,0,0,0-2.51-2.36"/><path class="cls-2" d="M28.76,29.26H41.11a2.36,2.36,0,1,0,0-4.72h-6.3L45,15a2.26,2.26,0,0,0,0-3.34,2.61,2.61,0,0,0-3.55,0L31.27,21.2V15.26a2.51,2.51,0,0,0-5,0V26.9a2.44,2.44,0,0,0,2.51,2.36"/></svg>